<svg width="214" height="98" viewBox="0 0 214 98" fill="none" xmlns="http://www.w3.org/2000/svg">
<g clip-path="url(#clip0_255_3)">
<path d="M1.51004 61.1802C8.27004 58.6302 15.32 56.3602 22.59 55.9602C29.33 55.5902 35.62 57.1902 41.63 60.1502C52.7 65.6102 62.66 73.8402 75.58 74.0302C82.2 74.1202 88.7 72.3702 94.71 69.6902C100.68 67.0202 105.96 63.1902 111.44 59.6802C116.59 56.3802 122.19 53.1502 128.38 52.4602C135.03 51.7202 141.25 54.3302 146.67 58.0002C152.99 62.2702 158.25 67.9002 164.52 72.2302C170.9 76.6302 178.28 79.3002 185.97 80.1602C187.57 80.3402 187.55 77.8402 185.97 77.6602C179.02 76.8902 172.33 74.4402 166.51 70.5702C160.73 66.7302 155.85 61.7202 150.32 57.5602C145.17 53.6802 139.25 50.4702 132.72 49.9102C126.59 49.3802 120.66 51.5302 115.36 54.4202C109.79 57.4602 104.75 61.3302 99.28 64.5302C93.36 67.9902 86.75 70.6202 79.89 71.3302C73.33 72.0102 67.04 70.7202 61.1 67.9502C55.53 65.3602 50.41 61.9402 44.99 59.0602C38.55 55.6402 31.79 53.3202 24.43 53.4002C16.3 53.4902 8.41004 55.9302 0.870043 58.7702C-0.649957 59.3402 4.27961e-05 61.7502 1.51004 61.1802Z" fill="white"/>
<path d="M43.63 61.1301C46.68 63.6601 49.02 66.8801 51.16 70.1901C52.85 72.8001 54.35 75.5901 56.3 78.0301C58.61 80.9201 61.75 83.1901 65.12 84.7101C67.73 85.9001 70.66 86.8801 73.56 86.8301C75.17 86.8101 75.17 84.3101 73.56 84.3301C70.89 84.3701 68.14 83.4101 65.77 82.2601C62.66 80.7501 59.74 78.5901 57.71 75.7601C53.7 70.1901 50.79 63.8301 45.4 59.3601C44.17 58.3401 42.39 60.1001 43.63 61.1301Z" fill="white"/>
<path d="M23.8001 55.9098C31.2101 55.9898 38.8001 55.4598 45.8001 52.8498C49.5701 51.4398 53.0801 49.1898 57.0201 48.2598C59.5301 47.6698 62.1501 47.7498 64.6801 48.1398C66.2501 48.3798 66.9301 45.9698 65.3401 45.7298C60.6601 45.0198 56.4001 45.4598 52.0701 47.3598C47.5901 49.3298 43.3501 51.3398 38.5001 52.2998C33.6601 53.2598 28.7101 53.4598 23.7901 53.4098C22.1901 53.3998 22.1901 55.8998 23.8001 55.9098Z" fill="white"/>
<path d="M62.87 71.4301C66.31 72.8501 70.14 73.7201 73.83 72.8301C76.59 72.1701 78.94 70.4901 80.64 68.2401C82.15 66.2301 83.15 63.8201 83.63 61.3501C84.18 58.5301 83.63 55.6201 85.35 53.1201C87.83 49.5201 92.69 48.0001 96.69 46.8801C98.24 46.4501 97.58 44.0401 96.03 44.4701C92.34 45.5001 88.57 46.8301 85.57 49.2801C82.77 51.5601 81.53 54.5701 81.48 58.1301C81.42 62.7001 79.23 67.8701 74.86 69.8501C71.22 71.5001 67.05 70.4601 63.54 69.0101C62.05 68.4101 61.4 70.8201 62.87 71.4301Z" fill="white"/>
<path d="M84.53 73.0898C90.76 71.9498 97.71 71.6198 103.95 72.8498C107.42 73.5298 111.04 74.4298 113.66 76.9398C116.09 79.2598 117.56 82.4698 117.87 85.8098C118.02 87.3998 120.52 87.4098 120.37 85.8098C120.02 82.1098 118.6 78.5998 116.07 75.8398C113.28 72.7998 109.52 71.5598 105.6 70.6598C98.61 69.0498 90.87 69.3898 83.85 70.6798C82.28 70.9698 82.95 73.3798 84.53 73.0898Z" fill="white"/>
<path d="M142.03 55.26C143.73 56.17 144.63 57.44 144.62 59.38C144.61 61.89 144.32 64.4 144.37 66.91C144.46 71.62 145.98 75.83 148.46 79.8C153.06 87.16 159.5 93.29 167.01 97.61C168.41 98.42 169.67 96.26 168.27 95.45C160.67 91.07 154.06 84.72 149.73 77.05C148.62 75.08 147.71 72.99 147.25 70.77C146.73 68.27 146.83 65.68 146.95 63.15C147.05 61.18 147.43 58.97 146.81 57.05C146.23 55.26 144.92 53.97 143.29 53.1C141.87 52.34 140.61 54.5 142.03 55.26Z" fill="white"/>
<path d="M158.93 67.9402C164.8 71.7402 172.12 68.8002 177.64 65.7902C179.99 64.5102 182.19 63.0502 184.67 62.0202C188.54 60.4202 192.35 60.1902 196.48 60.7402C198.05 60.9502 198.73 58.5402 197.14 58.3302C193.16 57.7902 189.29 57.7202 185.45 59.0602C182.79 59.9902 180.43 61.3102 178.01 62.7102C172.96 65.6302 165.79 69.4102 160.19 65.7902C158.84 64.9002 157.58 67.0602 158.93 67.9402Z" fill="white"/>
<path d="M126.98 52.6698C129.93 52.1098 132.58 50.0198 134.85 48.1698C137.48 46.0398 140.2 44.3498 143.65 43.9898C147.57 43.5898 151.54 43.5798 155.07 41.5598C157.5 40.1698 159.17 37.9398 159.86 35.2198C160.26 33.6598 157.85 32.9898 157.45 34.5598C156.02 40.1898 149.95 41.0698 145.01 41.3898C141.7 41.5998 138.53 42.4198 135.74 44.2898C132.71 46.3298 130.06 49.5398 126.31 50.2498C124.74 50.5598 125.41 52.9698 126.98 52.6698Z" fill="white"/>
<path d="M107.65 62.1599C113.56 57.8999 117.85 52.0099 121.79 45.9699C125.87 39.7199 129.76 32.7999 135.47 27.8599C138.53 25.1999 142.25 23.3299 146.01 21.8699C149.91 20.3499 153.96 19.0599 158.07 18.2099C162.5 17.2999 167.02 17.1199 171.43 18.2599C175.59 19.3299 179.5 21.1599 183.61 22.3799C193.01 25.1699 203.03 25.5199 212.62 23.5499C214.19 23.2299 213.53 20.8199 211.96 21.1399C203.26 22.9299 194.19 22.6799 185.61 20.3499C181.38 19.2099 177.39 17.3699 173.2 16.1499C169.01 14.9299 164.73 14.6899 160.41 15.2899C156.08 15.8799 151.86 17.1499 147.74 18.5899C144 19.8999 140.29 21.4499 136.97 23.6399C130.53 27.8799 126.14 34.6599 122.03 41.0299C117.59 47.9099 113.16 55.1299 106.41 60.0099C105.1 60.9299 106.35 63.0999 107.65 62.1599Z" fill="white"/>
<path d="M183.48 22.2999C186.04 23.4399 187.64 25.5999 189.24 27.7999C190.61 29.6799 192.22 31.3599 193.72 33.1299C195.27 34.9699 196.88 36.7299 198.79 38.1999C201.18 40.0299 203.91 41.2699 206.77 42.1599C208.31 42.6399 208.97 40.2299 207.43 39.7499C204.65 38.8799 201.99 37.6499 199.74 35.7799C197.95 34.2999 196.46 32.5199 194.97 30.7399C193.53 29.0299 192.05 27.4099 190.74 25.6099C189.12 23.3899 187.32 21.2699 184.75 20.1299C183.29 19.4999 182.01 21.6499 183.48 22.2999Z" fill="white"/>
<path d="M193.08 24.3397C196.26 24.6297 199.21 22.3597 201.81 20.8397C203.31 19.9697 204.92 19.2797 206.54 18.6797C208.22 18.0497 209.99 17.4697 211.8 17.4397C213.41 17.4097 213.41 14.9097 211.8 14.9397C208.22 14.9997 204.47 16.5997 201.35 18.2397C198.85 19.5497 196.09 22.1097 193.08 21.8397C191.48 21.6997 191.49 24.1997 193.08 24.3397Z" fill="white"/>
<path d="M159.24 17.9697C162.67 17.5997 166.07 16.7597 169.17 15.1997C171.98 13.7897 174.23 11.4697 177 9.94974C178.84 8.93974 180.79 8.10974 182.86 7.72974C183.35 7.63974 183.76 7.58974 184.3 7.57974C184.49 7.57974 185.37 7.65974 184.65 7.55974C186.22 7.77974 186.9 5.36974 185.31 5.14974C182.58 4.76974 179.65 5.87974 177.23 7.02974C175.91 7.65974 174.64 8.38974 173.43 9.19974C171.98 10.1697 170.68 11.3797 169.21 12.3097C166.28 14.1697 162.65 15.0997 159.23 15.4697C157.66 15.6397 157.64 18.1397 159.24 17.9697Z" fill="white"/>
<path d="M122.87 44.2999C124.28 42.2899 125.36 40.0199 126.52 37.8599C128.34 34.4799 130.15 31.0799 131.99 27.7099C133.67 24.6399 135.35 21.5499 137.25 18.5999C138.37 16.8699 139.54 15.8899 141.12 14.4199C144.98 10.8299 148.77 6.56995 150.51 1.50995C151.03 -0.0100528 148.62 -0.670053 148.1 0.849947C146.56 5.32995 143.11 9.09995 139.73 12.3099C138.18 13.7799 136.69 14.9599 135.49 16.7499C131.48 22.7099 128.3 29.2899 124.91 35.6099C123.58 38.0899 122.34 40.7299 120.72 43.0399C119.79 44.3599 121.96 45.6099 122.87 44.2999Z" fill="white"/>
</g>
<defs>
<clipPath id="clip0_255_3">
<rect width="213.51" height="97.79" fill="white"/>
</clipPath>
</defs>
</svg>